<svg width="1427" height="1427" viewBox="0 0 1427 1427" fill="none" xmlns="http://www.w3.org/2000/svg">
<rect x="13" y="13" width="1401" height="1401" rx="700.5" fill="#1E1E1E" stroke="white" stroke-width="25.8487"/>
<rect x="348.102" y="869.524" width="814.234" height="302.43" transform="rotate(-45 348.102 869.524)" fill="#0C2400"/>
<path d="M993.765 223.861L925.434 292.191L1139.28 506.042L1207.62 437.711C1216.7 428.626 1216.7 413.896 1207.62 404.811L1026.66 223.861C1017.58 214.775 1002.85 214.775 993.765 223.861Z" fill="#68D391" stroke="white" stroke-width="11.6319" stroke-linecap="square" stroke-linejoin="round"/>
<path d="M562.774 1082.55L348.924 868.701L298.071 1105.78C294.531 1122.28 309.193 1136.95 325.696 1133.41L562.774 1082.55Z" fill="#68D391" stroke="white" stroke-width="11.6319" stroke-linecap="square" stroke-linejoin="round"/>
<path d="M567.013 1078.31L1139.28 506.042L925.434 292.192L353.163 864.462" stroke="white" stroke-width="11.6319" stroke-linecap="square" stroke-linejoin="round"/>
<path d="M882.727 334.898L1096.58 548.749M866.277 351.348L1080.13 565.199" stroke="white" stroke-width="11.6319" stroke-linecap="square" stroke-linejoin="round"/>
<path d="M413.902 803.724L627.752 1017.57M397.452 820.174L611.302 1034.02" stroke="white" stroke-width="11.6319" stroke-linecap="square" stroke-linejoin="round"/>
</svg>
